<svg width="4096" height="4096" viewBox="0 0 4096 4096" fill="none" xmlns="http://www.w3.org/2000/svg">
    <g id="Frame 7">
        <g id="Overlays">
            <path id="h" d="M523.319 2156.62L564.931 2244.47C566.998 2248.83 571.888 2251.09 576.553 2249.85L1601.44 1975.66C1611.16 1973.06 1618.9 1965.83 1622.11 1956.3C1638.65 1907.07 1691.22 1750.75 1717.68 1673C1721.77 1660.96 1717.83 1647.72 1707.86 1639.83L1209.29 1245.33C1201.87 1239.46 1192.11 1237.43 1182.97 1239.86L136.392 1518.03C116.845 1523.23 107.935 1545.88 118.705 1563L262.973 1792.3C265.583 1796.45 270.816 1798.1 275.331 1796.19L383.178 1750.6C387.465 1748.78 392.435 1750.17 395.167 1753.93L627.867 2074.77C634.151 2083.44 630.96 2095.68 621.245 2100.18L528.156 2143.26C523.113 2145.6 520.94 2151.6 523.319 2156.62Z" />
            <path id="g" d="M1244.5 1229L1752.83 1618.72C1762.84 1626.39 1776.56 1627.01 1787.16 1620.19C1876.06 1563 2038.08 1455.19 2094.5 1404C2143.98 1359.11 2326.14 1303.77 2457.19 1269.65C2483.98 1262.67 2488.63 1225.98 2464.22 1212.93L2083 1009.12C2076.26 1005.51 2068.39 1004.62 2061.01 1006.62L1235.5 1230.5" />
            <path id="c" d="M3582.61 1846.04L3006.71 1648.86C2984.52 1641.27 2979.24 1612.29 2997.32 1597.36L3209.15 1422.29C3216.59 1416.14 3226.53 1413.95 3235.87 1416.39L3362 1449.44C3371.69 1451.98 3382 1449.52 3389.49 1442.88L3566.15 1286.44C3573.84 1279.63 3584.48 1277.23 3594.35 1280.07L4003.76 1398.16C4025.91 1404.54 4032.88 1432.48 4016.33 1448.52L3613.2 1839.21C3605.1 1847.06 3593.28 1849.7 3582.61 1846.04Z" />
            <path id="b" d="M2551.09 1518.61L3519.84 1847.34C3541.01 1854.52 3547.17 1881.49 3531.22 1897.15L2890.37 2526.4C2881.43 2535.18 2867.98 2537.48 2856.63 2532.17L1799.05 2037.19C1777.6 2027.15 1775.7 1997.38 1795.69 1984.69L2525.38 1521.69C2533.04 1516.83 2542.5 1515.7 2551.09 1518.61Z" />
            <path id="a" d="M1635.17 1992.09L2722.32 2535.66C2746.62 2547.81 2743.54 2583.43 2717.52 2591.23L866.467 3146.12C850.9 3150.78 834.448 3142.21 829.361 3126.77L650.786 2584.97C648.998 2579.54 652.111 2573.72 657.618 2572.2L755.213 2545.21C760.594 2543.72 763.714 2538.11 762.143 2532.76L714.071 2368.77C712.657 2363.95 715.465 2358.9 720.307 2357.56L953.935 2292.92C959.607 2291.35 962.704 2285.25 960.622 2279.75L924.913 2185.35C922.819 2179.81 925.967 2173.67 931.687 2172.15L1614.01 1989.93C1621.09 1988.04 1628.62 1988.81 1635.17 1992.09Z" />
            <path id="gc" d="M740.707 2538.2L652.807 2562.43C647.615 2563.87 642.221 2560.93 640.608 2555.79L596.25 2414.5L554 2287L489.5 2154.5L278.797 1821.45C275.498 1816.24 277.662 1809.31 283.342 1806.9L380.675 1765.61C384.962 1763.79 389.938 1765.17 392.674 1768.94L616.367 2077.17C620.063 2082.26 618.193 2089.46 612.486 2092.12L513.068 2138.29C508.06 2140.61 505.885 2146.56 508.211 2151.57L558.999 2260.96C561.028 2265.33 565.886 2267.63 570.553 2266.43L902.744 2181.25C907.716 2179.97 912.846 2182.67 914.615 2187.49L945.738 2272.25C947.76 2277.76 944.628 2283.82 938.964 2285.35L706.351 2348.33C700.943 2349.8 697.793 2355.42 699.367 2360.79L747.647 2525.75C749.215 2531.11 746.09 2536.72 740.707 2538.2Z" />
        </g>
    </g>
</svg>
