<svg width="4096" height="4096" viewBox="0 0 4096 4096" fill="none" xmlns="http://www.w3.org/2000/svg">
<g id="riyadh-sedra-NEIGHBORHOOD_GC-vector-mask">
<path id="RD1-D03-A-335-2716" d="M1830.51 1988.81L1885.39 2065.45L1771.34 2110.52V2144.86L1716.15 2167.55V2176.13L1659.74 2107.15V2093.35L1687.95 2081.4L1691.63 2087.22L1713.7 2077.72V2037.25L1830.51 1988.81Z" stroke="white" stroke-width="3" fill="#75DC7C"/>
<path id="RD1-D03-A-335-2717" d="M1782.38 1917.98L1830.51 1988.19L1714.01 2037.55V2077.41L1691.32 2086.91L1687.34 2081.09L1659.74 2093.97V2107.46L1604.86 2039.39V2025.9L1633.38 2014.25L1636.14 2017.93L1666.49 2006.89V1966.73L1782.38 1917.98Z" stroke="white" stroke-width="3" fill="#75DC7C"/>
<path id="RD1-D03-A-335-2718" d="M1735.16 1847.78L1782.99 1918.29L1666.49 1966.43V2007.51L1635.83 2017.93L1633.38 2014.25L1604.86 2025.9V2039.7L1551.21 1971.94V1957.23L1598.12 1936.99L1600.26 1940.37L1617.74 1933.31V1895.3L1735.16 1847.78Z" stroke="white" stroke-width="3" fill="#75DC7C"/>
<path id="RD1-D03-A-335-2719" d="M1687.03 1777.26L1735.47 1847.78L1618.05 1895.3V1933.31L1600.57 1940.37L1598.73 1936.38L1550.9 1957.23V1972.25L1496.33 1903.88V1889.47L1550.9 1866.79L1553.36 1870.16L1570.53 1862.49V1824.48L1687.03 1777.26Z" stroke="white" stroke-width="3" fill="#75DC7C"/>
<path id="RD1-D03-A-335-2720" d="M1639.51 1707.67L1687.03 1777.26L1570.83 1824.17V1862.49L1553.36 1870.16L1551.21 1867.09L1496.94 1888.86V1904.5L1442.07 1836.74V1821.72L1502.77 1795.66L1504.3 1799.03L1522.08 1791.98V1753.96L1639.51 1707.67Z" stroke="white" stroke-width="3" fill="#75DC7C"/>
<path id="RD1-D03-A-335-2721" d="M1588.31 1634.7L1640.12 1708.28L1522.39 1753.96V1791.98L1504.61 1799.03L1503.08 1795.66L1442.37 1821.41V1837.35L1387.49 1768.06V1753.35L1455.25 1724.22L1457.09 1727.6L1473.03 1719.93V1681.3L1588.31 1634.7Z" stroke="white" stroke-width="3" fill="#75DC7C"/>
<path id="RD1-D03-H-190-1624" d="M1122.3 946.113V984.433L883.159 1138.64L817.549 1059.54V1043.3L876.719 1004.05V1008.96L942.639 968.803V959.293L1059.75 886.633L1122.3 946.113Z" stroke="white" stroke-width="3" fill="#75DC7C"/>
<path id="RD1-D03-H-190-1625" d="M1049.64 873.452V892.762L942.329 960.212V969.102L876.719 1008.65V1004.36L817.549 1043.3V1060.16L760.219 989.032V976.152L821.839 936.302V939.672L875.799 907.482V896.132L994.14 820.412L1049.64 873.452Z" stroke="white" stroke-width="3" fill="#75DC7C"/>
<path id="RD1-D03-H-190-1626" d="M983.719 809.682V826.852L875.799 896.443V907.482L821.539 939.672V936.302L760.529 976.152V988.722L707.49 923.112V905.943L758.689 873.452V877.432L811.419 845.242V832.362L930.679 757.562L983.719 809.682Z" stroke="white" stroke-width="3" fill="#75DC7C"/>
<path id="RD1-D03-H-190-1627" d="M918.419 744.374V765.224L812.029 831.754V844.934C812.029 844.934 742.34 885.104 707.49 905.034V924.034L651.689 853.834V838.194L710.25 800.174V807.224L746.729 783.924V771.054L865.99 694.094L918.419 744.374Z" stroke="white" stroke-width="3" fill="#75DC7C"/>
<path id="RD1-D03-H-190-1628" d="M851.58 679.993V702.683L747.34 770.743V783.623L710.25 806.923V800.483L652.3 837.883V854.133L595.89 787.603V770.743L654.14 732.723V739.783L681.73 722.303V704.823L801.92 630.943L851.58 679.993Z" stroke="white" stroke-width="3" fill="#75DC7C"/>
<path id="RD1-D03-H-190-1629" d="M788.12 618.674V639.224L681.73 704.824V722.304L654.14 739.164V733.034L596.5 770.744V788.224L538.56 719.544V703.294L596.5 665.584V672.634L616.74 660.374V643.814L738.15 569.014L788.12 618.674Z" stroke="white" stroke-width="3" fill="#75DC7C"/>
<path id="RD1-D03-H-190-1630" d="M720.669 558.584V579.434L617.039 643.204V660.684L596.5 673.254V665.584L538.859 702.994V720.154L479.689 653.624V637.384L531.199 604.884V610.094L551.13 598.444V584.644L671.309 510.764L720.669 558.584Z" stroke="white" stroke-width="3" fill="#75DC7C"/>
<path id="RD1-D03-H-190-1631" d="M655.67 494.203V519.654L551.43 584.344V598.134L531.81 610.094V605.184L480 637.384V654.854L421.14 588.024V572.073L464.98 543.564V550.314L486.74 537.744V517.814L606.01 446.684L655.67 494.203Z" stroke="white" stroke-width="3" fill="#75DC7C"/>
<path id="RD1-D03-H-190-1632" d="M593.13 435.953V454.653L487.049 518.113V538.353L464.979 551.233V543.873L421.75 571.773V589.243L360.429 523.333V507.383L406.729 477.643V483.473L421.75 474.893V457.723L540.699 386.283L593.13 435.953Z" stroke="white" stroke-width="3" fill="#75DC7C"/>
<path id="RD1-D03-H-190-1633" d="M527.519 376.163V394.873L422.049 458.333V474.893L406.729 483.783V477.343L360.739 507.083V524.253L300.339 458.333V443.003L323.029 428.283V433.803L357.059 413.263V391.803L472.639 322.213L527.519 376.163Z" stroke="white" stroke-width="3" fill="#75DC7C"/>
<path id="RD1-D03-H-190-1634" d="M458.229 308.412V330.482L357.669 392.112V413.572L323.329 433.502V428.282L301.26 442.392V458.943L238.719 392.112V377.392L261.709 362.372V370.952L291.76 352.252V336.922L410.709 262.732L458.229 308.412Z" stroke="white" stroke-width="3" fill="#75DC7C"/>
<path id="RD1-D03-H-190-1635" d="M395.079 248.013V271.933L292.369 336.923V351.943L261.709 370.653V362.063L238.719 377.083V393.333L178.629 328.953V312.393L202.229 298.293V305.043L226.449 288.793V275.603L347.549 202.023L395.079 248.013Z" stroke="white" stroke-width="3" fill="#75DC7C"/>
<path id="RD1-D03-H-190-1636" d="M333.449 190.072V210.912L227.069 275.602V289.092L202.539 305.962V298.292L178.63 312.092V329.562L119.449 263.952V254.452L174.949 218.892V205.702L278.27 139.482L333.449 190.072Z" stroke="white" stroke-width="3" fill="#75DC7C"/>
<path id="RD1-D03-H-191-1637" d="M214.799 78.4728V102.383L62.4294 202.943L1.72949 136.723V122.013L24.7195 107.603V109.743L34.5294 104.533V67.1288L136.01 2.13281L214.799 78.4728Z" stroke="white" stroke-width="3" fill="#75DC7C"/>
<path id="RD1-D03-A-323-2636" d="M1334.45 1494.9V1480.18L1444.52 1433.89L1546 1585.03V1644.2L1460.15 1678.54L1334.45 1494.9Z" stroke="white" stroke-width="3" fill="#75DC7C"/>
<path id="RD1-D03-A-323-2637" d="M1638.28 1605.88L1546.31 1644.51V1586.26L1444.21 1433.89L1535.88 1396.48L1638.28 1554.68V1605.88Z" stroke="white" stroke-width="3" fill="#75DC7C"/>
<path id="RD1-D03-A-323-2638" d="M1727.19 1567.86L1638.28 1605.88V1554.99L1535.57 1396.48L1628.16 1356.63L1727.19 1512.98V1567.86Z" stroke="white" stroke-width="3" fill="#75DC7C"/>
<path id="RD1-D03-A-323-2639" d="M1814.57 1531.69L1727.8 1568.48V1513.6L1628.16 1356.93L1717.99 1320.14L1814.57 1470.68V1531.69Z" stroke="white" stroke-width="3" fill="#75DC7C"/>
<path id="RD1-D03-A-323-2640" d="M1906.24 1492.75L1814.57 1531.69V1470.68L1717.69 1320.45L1809.05 1281.82L1906.24 1435.11V1492.75Z" stroke="white" stroke-width="3" fill="#75DC7C"/>
<path id="RD1-D03-A-323-2641" d="M1995.45 1454.73L1906.85 1492.44V1435.73L1808.74 1281.82L1897.35 1246.87L1995.45 1389.74V1454.73Z" stroke="white" stroke-width="3" fill="#75DC7C"/>
</g>
</svg>
